<svg width="50" height="50" viewBox="0 0 512 512" fill="none" xmlns="http://www.w3.org/2000/svg">
<g clip-path="url(#clip0_1_112)">
<path opacity="0.7" d="M360.37 41.4081C364.168 33.4864 360.841 23.936 352.698 20.639C318.866 6.94111 282.426 0.642268 245.838 2.24542C203.943 4.0811 163.148 16.2206 127.066 37.5885C90.983 58.9565 60.7272 88.8934 38.978 124.747C17.2289 160.601 4.65778 201.266 2.37822 243.139C0.0986662 285.012 8.18103 326.801 25.9094 364.804C43.6378 402.807 70.4649 435.851 104.015 461.01C137.564 486.169 176.801 502.665 218.248 509.038C254.446 514.604 291.355 512.298 326.474 502.354C334.926 499.96 339.27 490.827 336.355 482.54C333.439 474.253 324.368 469.957 315.894 472.276C285.731 480.528 254.109 482.364 223.083 477.594C186.806 472.016 152.465 457.578 123.101 435.558C93.7372 413.538 70.2571 384.616 54.7405 351.354C39.224 318.092 32.15 281.517 34.1451 244.868C36.1403 208.219 47.143 172.628 66.1787 141.247C85.2144 109.867 111.696 83.6646 143.276 64.9625C174.857 46.2605 210.563 35.6355 247.231 34.0289C278.591 32.6548 309.827 37.9133 338.916 49.391C347.088 52.6154 356.572 49.3298 360.37 41.4081Z" fill="#000"/>
<path opacity="0.85" d="M375.967 468.148C379.395 474.231 387.124 476.411 393.029 472.686C426.357 451.668 454.412 423.177 474.93 389.405C497.64 352.026 510.354 309.435 511.85 265.723C513.346 222.012 503.575 178.651 483.474 139.806C465.313 104.71 439.272 74.368 407.46 51.1195C401.822 46.9999 393.963 48.6458 390.127 54.4801C386.292 60.3145 387.937 68.1255 393.551 72.2758C421.75 93.121 444.85 120.183 461.018 151.427C479.126 186.419 487.929 225.481 486.581 264.858C485.233 304.235 473.779 342.604 453.321 376.277C435.055 406.342 410.159 431.76 380.6 450.629C374.715 454.385 372.54 462.066 375.967 468.148Z" fill="#000"/>
<path opacity="0.85" d="M200.917 92.7868C198.031 84.3373 188.807 79.7635 180.633 83.358C157.125 93.6968 135.907 108.726 118.31 127.585C97.0273 150.392 81.6982 178.097 73.6803 208.244C65.6623 238.391 65.2031 270.05 72.3431 300.417C79.4832 330.784 94.0022 358.922 114.614 382.337C135.226 405.753 161.295 423.723 190.511 434.658C219.727 445.592 251.188 449.152 282.109 445.023C313.03 440.894 342.455 429.203 367.778 410.985C388.716 395.922 406.315 376.782 419.552 354.775C424.155 347.123 420.788 337.393 412.773 333.459C404.757 329.525 395.139 332.888 390.404 340.457C379.599 357.728 365.515 372.781 348.895 384.738C327.889 399.85 303.479 409.548 277.829 412.974C252.179 416.399 226.08 413.446 201.844 404.375C177.608 395.305 155.983 380.397 138.884 360.973C121.786 341.549 109.742 318.207 103.819 293.017C97.8956 267.826 98.2766 241.563 104.928 216.554C111.579 191.546 124.295 168.564 141.95 149.644C155.918 134.675 172.636 122.614 191.138 114.087C199.247 110.35 203.803 101.236 200.917 92.7868Z" fill="#000"/>
<path opacity="0.5" d="M431.123 297.065C437.054 298.43 443.002 294.732 444.02 288.732C448.401 262.911 447.394 236.42 441.015 210.937C433.743 181.885 419.695 154.968 400.021 132.388C380.348 109.808 355.608 92.2066 327.825 81.0249C303.455 71.2167 277.352 66.5921 251.174 67.3965C245.092 67.5834 240.614 72.9686 241.154 79.0303C241.693 85.0921 247.047 89.5305 253.131 89.39C275.838 88.8658 298.455 92.9607 319.596 101.469C344.151 111.352 366.017 126.908 383.405 146.865C400.793 166.822 413.209 190.612 419.636 216.289C425.17 238.396 426.13 261.361 422.501 283.782C421.529 289.79 425.193 295.701 431.123 297.065Z" fill="#000"/>
<path d="M374.965 257.001C374.965 191.852 322.152 139.038 257.002 139.038C191.853 139.038 139.039 191.852 139.039 257.001C139.039 322.15 191.853 374.964 257.002 374.964C322.152 374.964 374.965 322.15 374.965 257.001ZM178.576 257.001C178.576 213.688 213.689 178.575 257.002 178.575C300.316 178.575 335.428 213.688 335.428 257.001C335.428 300.315 300.316 335.427 257.002 335.427C213.689 335.427 178.576 300.315 178.576 257.001Z" fill="#000"/>
</g>
<defs>
<clipPath id="clip0_1_112">
<rect width="512" height="512" fill="white"/>
</clipPath>
</defs>
<g>
  <text x="50%" y="50%" dominant-baseline="middle" text-anchor="middle">Stream Analyze</text>
</g>
</svg>
